<?xml version="1.0" encoding="UTF-8" standalone="no"?>
<svg
   xmlns:dc="http://purl.org/dc/elements/1.1/"
   xmlns:cc="http://creativecommons.org/ns#"
   xmlns:rdf="http://www.w3.org/1999/02/22-rdf-syntax-ns#"
   xmlns:svg="http://www.w3.org/2000/svg"
   xmlns="http://www.w3.org/2000/svg"
   xmlns:sodipodi="http://sodipodi.sourceforge.net/DTD/sodipodi-0.dtd"
   xmlns:inkscape="http://www.inkscape.org/namespaces/inkscape"
   enable-background="new 0 0 32 32"
   height="16"
   id="Layer_1"
   version="1.1"
   viewBox="0 0 16 16"
   width="16"
   xml:space="preserve"
   inkscape:version="1.0.2 (e86c870879, 2021-01-15)"
   sodipodi:docname="close_normal_hover.svg"><metadata
     id="metadata26"><rdf:RDF><cc:Work
         rdf:about=""><dc:format>image/svg+xml</dc:format><dc:type
           rdf:resource="http://purl.org/dc/dcmitype/StillImage" /><dc:title></dc:title></cc:Work></rdf:RDF></metadata><defs
     id="defs24" /><sodipodi:namedview
     pagecolor="#cecece"
     bordercolor="#666666"
     borderopacity="1"
     objecttolerance="10"
     gridtolerance="10"
     guidetolerance="10"
     inkscape:pageopacity="0"
     inkscape:pageshadow="2"
     inkscape:window-width="1366"
     inkscape:window-height="718"
     id="namedview22"
     showgrid="true"
     inkscape:zoom="25.621708"
     inkscape:cx="6.837506"
     inkscape:cy="10.471257"
     inkscape:window-x="0"
     inkscape:window-y="27"
     inkscape:window-maximized="1"
     inkscape:current-layer="layer3"
     inkscape:snap-bbox="true"
     inkscape:bbox-paths="true"
     inkscape:bbox-nodes="true"
     inkscape:snap-bbox-edge-midpoints="true"
     inkscape:document-rotation="0"><inkscape:grid
       type="xygrid"
       id="grid3003"
       empspacing="5"
       visible="true"
       enabled="true"
       snapvisiblegridlinesonly="true" /></sodipodi:namedview><g
     inkscape:groupmode="layer"
     id="layer3"
     inkscape:label="Layer 1"
     style="display:inline"><g
       id="g1763"><rect
         y="2.6171874e-06"
         x="0"
         height="16"
         width="16"
         id="rect17883-39"
         style="display:inline;fill:none;fill-opacity:1;stroke:none;stroke-width:1;stroke-linecap:butt;stroke-linejoin:miter;stroke-miterlimit:4;stroke-dasharray:none;stroke-dashoffset:0;stroke-opacity:0" /><path
         id="path1692"
         style="fill:#fc391f;fill-opacity:1;stroke-width:0.837"
         d="M 8,2 A 6,6 0 0 0 2,8 6,6 0 0 0 8,14 6,6 0 0 0 14,8 6,6 0 0 0 8,2 Z M 4.0039062,4 h 0.9980469 c 0.010366,-1.2e-4 0.020794,-4.6e-4 0.03125,0 0.2548507,0.0112 0.50994,0.1285852 0.6875,0.3125 L 8.0019531,6.59375 10.3125,4.3125 C 10.57802,4.0820066 10.759267,4.0069998 11,4 h 1 v 1 c 0,0.2864618 -0.03443,0.5506557 -0.25,0.75 l -2.2792969,2.28125 2.2480469,2.25 C 11.906864,10.469415 11.999992,10.734708 12,11 v 1 h -1 c -0.265197,-10e-6 -0.53066,-0.0931 -0.71875,-0.28125 L 8.0019531,9.4375 5.7207031,11.71875 C 5.5326132,11.906935 5.2671387,12 5.0019531,12 H 4.0039062 v -1 c -2.9e-6,-0.265282 0.093134,-0.530585 0.28125,-0.71875 L 6.5644531,8.03125 4.2851562,5.75 C 4.0744972,5.5553756 3.9820049,5.280742 4.0039062,5 Z" /></g></g></svg>
