<?xml version="1.0" encoding="UTF-8" standalone="no"?>
<svg viewBox="0 0 512 512" width="512" height="512" xmlns:svg="http://www.w3.org/2000/svg">
<g id="g1023">
    <path
        d="m 252.77914,126.40044 c 0.97648,0.48824 1.75767,1.66002 2.92945,1.66002 1.07412,0 2.73414,-0.39059 2.83179,-1.46472 0.1953,-1.36707 -1.85531,-2.24591 -3.12474,-2.83179 -1.66002,-0.68354 -3.80828,-0.97649 -5.37065,-0.0977 -0.39059,0.19529 -0.78118,0.68353 -0.58588,1.07413 0.29294,1.26942 2.2459,1.07413 3.32003,1.66001 z m -21.38494,1.66002 c 1.17178,0 1.95297,-1.17178 2.92945,-1.66002 1.07413,-0.58588 3.02709,-0.39059 3.41768,-1.56237 0.1953,-0.39059 -0.19529,-0.87883 -0.58589,-1.07412 -1.56237,-0.87884 -3.71063,-0.58589 -5.37064,0.0976 -1.26943,0.58589 -3.32004,1.46472 -3.12474,2.8318 0.0976,0.97648 1.75766,1.46472 2.73414,1.36707 z m 215.9,272.24296 c -3.51534,-3.90593 -5.17535,-11.32718 -7.03067,-19.23668 -1.75767,-7.9095 -3.80828,-16.40488 -10.25305,-21.87318 -1.26943,-1.07413 -2.53885,-2.05061 -3.90593,-2.83179 -1.26942,-0.78119 -2.6365,-1.46473 -4.00357,-1.95297 8.98363,-26.65793 5.4683,-53.21822 -3.61298,-77.23966 C 407.35611,247.77706 387.92414,222.0956 373.08162,204.51894 356.3838,183.52459 340.17421,163.60438 340.46715,134.21229 340.95539,89.3918 345.44721,6.0979542 266.44988,6.000306 166.4582,5.8050098 191.45612,106.96847 190.38199,138.02057 c -1.66001,22.84966 -6.24948,40.81691 -21.97082,63.17833 -18.4555,21.97083 -44.4299,57.4171 -56.73356,94.42574 -5.85889,17.47901 -8.59303,35.25097 -6.05418,52.04644 -6.347131,5.66359 -11.131889,14.35428 -16.209591,19.72492 -4.101221,4.19887 -10.057756,5.76124 -16.60018,8.1048 -6.542424,2.34355 -13.670737,5.85888 -18.064903,14.15897 -2.05061,3.80828 -2.734147,7.9095 -2.734147,12.10837 0,3.80828 0.585889,7.7142 1.171778,11.52248 1.171777,7.9095 2.441203,15.33075 0.781185,20.31081 -5.077703,14.06133 -5.76124,23.82614 -2.148259,30.95445 3.710628,7.12831 11.131886,10.25305 19.627272,12.01072 16.893125,3.51533 39.840435,2.6365 57.905335,12.20602 19.33433,10.1554 38.9616,13.76838 54.5853,10.1554 11.32718,-2.53885 20.60375,-9.37422 25.29086,-19.72492 12.20602,-0.0976 25.68146,-5.273 47.16404,-6.44478 14.54957,-1.17177 32.80977,5.17535 53.80412,4.00358 0.58588,2.2459 1.36707,4.49181 2.4412,6.54242 v 0.0976 c 8.10479,16.30723 23.24025,23.72849 39.35219,22.45907 16.20959,-1.26943 33.29801,-10.7413 47.16404,-27.24383 13.28015,-16.01429 35.15333,-22.65436 49.7029,-31.44269 7.22596,-4.39417 13.08484,-9.86246 13.57308,-17.86961 0.3906,-8.00715 -4.29651,-16.89312 -15.13545,-29.00149 z M 255.61094,91.247114 c 9.56951,-21.677882 33.39565,-21.28729 42.96517,-0.390592 6.34713,13.866038 3.51533,30.173278 -4.19887,39.449848 -1.56237,-0.78119 -5.76124,-2.53885 -12.30366,-4.78476 1.07413,-1.17178 3.02709,-2.6365 3.80827,-4.49181 4.68711,-11.52248 -0.19529,-26.365001 -8.88597,-26.657946 -7.12832,-0.48824 -13.57309,10.546006 -11.52248,22.459076 -4.00358,-1.95296 -9.17893,-3.41769 -12.69426,-4.29652 -0.97648,-6.73772 -0.29294,-14.256631 2.8318,-21.287296 z M 215.86815,80.017581 c 9.86246,0 20.31081,13.866033 18.65079,32.712129 -3.41768,0.97648 -6.93301,2.4412 -9.9601,4.49181 1.17177,-8.69068 -3.22239,-19.627278 -9.37422,-19.139037 -8.20245,0.683537 -9.56952,20.701407 -1.75767,27.439127 0.97648,0.78119 1.85531,-0.1953 -5.76124,5.37065 -15.23311,-14.25663 -10.25305,-50.874679 8.20244,-50.874679 z M 202.58801,139.29 c 6.05418,-4.49182 13.28014,-9.76482 13.76838,-10.25306 4.58946,-4.29651 13.1825,-13.86603 27.24383,-13.86603 6.93301,0 15.23311,2.24591 25.29086,8.69068 6.15183,4.00358 11.03424,4.29652 22.06848,9.08128 8.20244,3.41768 13.37779,9.47187 10.25305,17.77196 -2.53885,6.93301 -10.74129,14.06133 -22.16612,17.67431 -10.83895,3.51533 -19.33433,15.62369 -37.30159,14.54957 -3.80827,-0.1953 -6.83536,-0.97649 -9.37422,-2.05062 -7.81184,-3.41768 -11.91307,-10.1554 -19.52962,-14.64721 -8.39774,-4.68711 -12.88955,-10.15541 -14.35427,-14.94017 -1.36708,-4.78475 0,-8.78833 4.10122,-12.01071 z m 3.22239,326.14471 c -2.6365,34.27449 -42.86753,33.59096 -73.52904,17.57667 -29.19678,-15.42841 -66.986607,-6.34713 -74.700808,-21.38494 -2.343555,-4.58946 -2.343555,-12.40131 2.538851,-25.77911 v -0.19529 c 2.343555,-7.42126 0.585889,-15.6237 -0.585889,-23.3379 -1.171777,-7.61656 -1.757666,-14.64722 0.878833,-19.52963 3.417685,-6.54242 8.300091,-8.88597 14.451922,-11.03423 10.057756,-3.61298 11.522478,-3.32004 19.139031,-9.66717 5.370647,-5.56594 9.27657,-12.5966 13.96368,-17.57666 4.98005,-5.37065 9.76481,-7.9095 17.28372,-6.73772 7.9095,1.17178 14.74486,6.64007 21.38494,15.6237 l 19.13903,34.76273 c 9.27657,19.43198 42.08634,47.26169 40.03573,67.27955 z m -1.36708,-25.29086 c -4.00357,-6.44477 -9.37422,-13.28014 -14.06133,-19.13903 6.93302,0 13.86604,-2.14826 16.30724,-8.69068 2.24591,-6.05419 0,-14.54957 -7.22596,-24.31438 -13.1825,-17.77196 -37.39923,-31.73564 -37.39923,-31.73564 -13.1825,-8.20244 -20.60375,-18.2602 -24.02144,-29.19679 -3.41768,-10.93659 -2.92944,-22.75201 -0.29294,-34.37214 5.0777,-22.36142 18.16255,-44.13695 26.56029,-57.80769 2.2459,-1.66001 0.78118,3.12474 -8.49539,20.31081 -8.30009,15.72135 -23.82614,52.04645 -2.53885,80.46205 0.58589,-20.21316 5.37064,-40.81691 13.47544,-60.05359 11.71777,-26.75558 36.42275,-73.13844 38.37571,-110.04943 1.07413,0.78119 4.49181,3.12474 6.05418,4.00357 4.49182,2.6365 7.9095,6.54243 12.30367,10.05776 12.10836,9.76481 27.82971,8.98363 41.4028,1.17178 6.05418,-3.41769 10.93659,-7.32361 15.52605,-8.78833 9.66716,-3.0271 17.38136,-8.39774 21.77553,-14.64722 7.51891,29.68503 25.09557,72.55255 36.3251,93.44925 5.95654,11.13188 17.86961,34.66508 23.04496,63.08068 3.22238,-0.0976 6.83536,0.3906 10.64364,1.36708 13.47544,-34.86038 -11.42483,-72.45491 -22.75201,-82.90326 -4.58946,-4.49181 -4.78476,-6.44477 -2.53885,-6.34712 12.30366,10.93659 28.51325,32.90741 34.37214,57.61239 2.73414,11.32718 3.22238,23.1426 0.39059,34.86038 16.01429,6.64007 35.05567,17.47901 29.97797,33.98154 -2.14826,-0.0976 -3.12474,0 -4.10122,0 3.12474,-9.86246 -3.80828,-17.18607 -22.26377,-25.48616 -19.13903,-8.39774 -35.15332,-8.39774 -37.39923,12.20602 -11.81542,4.10122 -17.86961,14.35427 -20.8967,26.65793 -2.73414,10.93659 -3.51533,24.11909 -4.29651,38.9616 -0.48825,7.51891 -3.51534,17.57666 -6.64008,28.31796 -31.34504,22.36142 -74.8961,32.12623 -111.6118,7.03066 z m 251.34626,-11.22953 c -0.87883,16.40488 -40.23102,19.43197 -61.71361,45.40637 -12.88955,15.33076 -28.70855,23.82614 -42.57458,24.90027 -13.86603,1.07413 -25.87675,-4.68711 -32.90742,-18.84608 -4.58946,-10.83894 -2.34355,-22.55672 1.07413,-35.44627 3.61298,-13.86603 8.98363,-28.12266 9.66717,-39.64514 0.78118,-14.84251 1.66002,-27.82971 4.10122,-37.78982 2.53885,-10.05776 6.44477,-16.79548 13.37779,-20.60375 0.29294,-0.1953 0.68354,-0.29295 0.97648,-0.48824 0.78119,12.88955 7.12831,25.9744 18.35785,28.80619 12.30366,3.22239 29.97797,-7.32361 37.49688,-15.91664 8.78833,-0.29295 15.33075,-0.87883 22.06847,4.98005 9.66716,8.30009 6.93302,29.58738 16.69783,40.62162 10.3507,11.32718 13.67074,19.04138 13.37779,24.02144 z M 206.39628,151.20307 c 1.95297,1.85531 4.58947,4.39416 7.81185,6.93301 6.44478,5.07771 15.42841,10.3507 26.65794,10.3507 11.32718,0 21.97083,-5.76124 31.0521,-10.54599 4.78476,-2.53885 10.64365,-6.83537 14.45192,-10.15541 3.80828,-3.32003 5.76124,-6.15183 3.0271,-6.44477 -2.73415,-0.29295 -2.53885,2.53885 -5.85889,4.98005 -4.29652,3.12474 -9.47187,7.22596 -13.57309,9.56952 -7.22596,4.10122 -19.04138,9.9601 -29.19679,9.9601 -10.1554,0 -18.2602,-4.68711 -24.31438,-9.47186 -3.02709,-2.44121 -5.56594,-4.88241 -7.5189,-6.73772 -1.46473,-1.36708 -1.85532,-4.49182 -4.19887,-4.78476 -1.36708,-0.0976 -1.75767,3.61298 1.66001,6.34713 z"
        style="fill:#000000;fill-opacity:1;stroke:none;stroke-width:0.976;stroke-miterlimit:4;stroke-dasharray:none;stroke-opacity:1">
    </path>
</g>
</svg>
